<?xml version="1.0" standalone="no"?>
<!DOCTYPE svg PUBLIC "-//W3C//DTD SVG 20010904//EN"
 "http://www.w3.org/TR/2001/REC-SVG-20010904/DTD/svg10.dtd">
<svg version="1.0" xmlns="http://www.w3.org/2000/svg"
 width="2332.000000pt" height="1566.000000pt" viewBox="0 0 2332.000000 1566.000000"
 preserveAspectRatio="xMidYMid meet">

<g transform="translate(0.000000,1566.000000) scale(0.100000,-0.100000)"
fill="#000000" stroke="none">
<path d="M7641 15493 c-43 -87 -927 -1879 -1964 -3983 -1037 -2104 -2712
-5501 -3722 -7550 -1011 -2049 -1861 -3776 -1891 -3837 l-53 -113 1817 0 1818
0 2374 5293 c1305 2910 2540 5664 2744 6119 204 454 374 824 377 822 3 -2
1240 -2755 2749 -6119 l2743 -6115 1819 0 1818 0 -61 123 c-33 67 -1767 3585
-3853 7817 l-3793 7695 -1422 3 -1421 2 -79 -157z"/>
<path d="M13257 15453 l-128 -4 558 -1109 558 -1110 1690 0 c1075 0 1734 -4
1810 -11 311 -26 646 -136 910 -299 535 -328 898 -889 980 -1513 134 -1031
-533 -2013 -1549 -2278 -237 -61 -245 -62 -1033 -66 l-722 -4 567 -1135 567
-1134 476 0 c494 0 612 -6 789 -41 799 -159 1437 -774 1625 -1565 44 -182 58
-329 52 -534 -7 -249 -44 -445 -124 -660 -113 -303 -330 -624 -560 -827 -85
-75 -228 -184 -283 -215 -22 -13 -40 -26 -40 -30 0 -4 304 -617 675 -1363
l674 -1357 183 94 c615 316 1118 743 1530 1298 825 1111 1066 2574 641 3885
-167 516 -411 967 -759 1405 -138 173 -479 514 -653 653 -416 332 -856 574
-1339 738 -84 28 -150 55 -145 59 4 4 37 17 73 30 493 176 1044 543 1401 932
525 572 842 1228 955 1973 31 208 44 632 25 842 -32 352 -119 719 -252 1053
-55 139 -201 426 -287 563 -251 399 -587 758 -979 1045 -215 158 -574 351
-838 451 -350 133 -706 208 -1095 231 -148 9 -5600 11 -5953 3z"/>
<path d="M7474 3380 l-1662 -3370 3325 0 c2549 0 3324 3 3321 12 -9 27 -3313
6727 -3318 6728 -3 0 -753 -1517 -1666 -3370z"/>
</g>
</svg>
